<svg width="18" height="18" viewBox="0 0 18 18" fill="none" xmlns="http://www.w3.org/2000/svg">
<g clip-path="url(#clip0_5_810)">
<g clip-path="url(#clip1_5_810)">
<path d="M2.35911 0.713616C2.00764 0.362144 1.43779 0.362144 1.08632 0.713616C0.734848 1.06509 0.734848 1.63493 1.08632 1.98641L7.72727 8.62736L0.713799 15.6408C0.362327 15.9923 0.362327 16.5622 0.713799 16.9136C1.06527 17.2651 1.63512 17.2651 1.98659 16.9136L9.00007 9.90019L16.0135 16.9136C16.365 17.2651 16.9348 17.2651 17.2863 16.9136C17.6378 16.5622 17.6378 15.9923 17.2863 15.6408L10.2728 8.62736L16.9138 1.98641C17.2653 1.63493 17.2653 1.06509 16.9138 0.713616C16.5623 0.362144 15.9924 0.362144 15.641 0.713616L9.00007 7.35456L2.35911 0.713616Z" fill="#AFAFAF"/>
</g>
</g>
<defs>
<clipPath id="clip0_5_810">
<rect width="18" height="18" fill="white"/>
</clipPath>
<clipPath id="clip1_5_810">
<rect width="18" height="18" fill="white"/>
</clipPath>
</defs>
</svg>
