<svg width="32" height="32" viewBox="0 0 32 32" fill="none" xmlns="http://www.w3.org/2000/svg">
<path d="M16 29.2174C23.2997 29.2174 29.2174 23.2997 29.2174 16C29.2174 8.70022 23.2997 2.78259 16 2.78259C8.70022 2.78259 2.78259 8.70022 2.78259 16C2.78259 23.2997 8.70022 29.2174 16 29.2174Z" fill="#CE82FF" stroke="#CE82FF" stroke-width="1.3913"/>
<path d="M10.4348 17.3913C11.2032 17.3913 11.8261 16.7683 11.8261 15.9999C11.8261 15.2316 11.2032 14.6086 10.4348 14.6086C9.66637 14.6086 9.04346 15.2316 9.04346 15.9999C9.04346 16.7683 9.66637 17.3913 10.4348 17.3913Z" fill="white"/>
<path d="M16 17.3913C16.7684 17.3913 17.3913 16.7683 17.3913 15.9999C17.3913 15.2316 16.7684 14.6086 16 14.6086C15.2316 14.6086 14.6087 15.2316 14.6087 15.9999C14.6087 16.7683 15.2316 17.3913 16 17.3913Z" fill="white"/>
<path d="M21.5652 17.3913C22.3336 17.3913 22.9565 16.7683 22.9565 15.9999C22.9565 15.2316 22.3336 14.6086 21.5652 14.6086C20.7968 14.6086 20.1739 15.2316 20.1739 15.9999C20.1739 16.7683 20.7968 17.3913 21.5652 17.3913Z" fill="white"/>
</svg>
