<svg width="40" height="30" viewBox="0 0 40 30" fill="none" xmlns="http://www.w3.org/2000/svg">
<g clip-path="url(#clip0_1_2430)">
<path d="M11.2333 14.7517H12.9445C14.014 14.7517 14.8811 15.6188 14.8811 16.6884C14.8811 17.758 14.014 18.6251 12.9445 18.6251H10.4859C7.76335 18.6251 5.55631 20.8321 5.55631 23.5547C5.55631 26.2769 7.76335 28.484 10.4859 28.484H24.5656C29.9141 28.484 34.2489 24.1488 34.2489 18.8006C34.2489 13.4532 29.9137 9.11804 24.5659 9.11804H11.6815C10.2021 9.11651 8.97035 10.253 8.85304 11.7277C8.73573 13.2025 9.77233 14.5194 11.2333 14.7517Z" fill="#CC8C45"/>
<path d="M9.68073 10.7025H8.83999V12.111H9.68073V10.7025ZM6.38554 22.1858H5.55591V23.5944H6.38554V22.1858Z" fill="#CC8C45"/>
<path d="M11.2333 13.5192H12.9445C13.6364 13.5192 14.2757 13.8883 14.6217 14.4875C14.9676 15.0867 14.9676 15.825 14.6217 16.4242C14.2757 17.0234 13.6364 17.3925 12.9445 17.3925H10.4859C7.76335 17.3925 5.55631 19.5999 5.55631 22.3222C5.55631 25.0444 7.76335 27.2518 10.4859 27.2518H24.5656C29.9141 27.2514 34.2489 22.9159 34.2489 17.5685C34.2489 12.2207 29.9137 7.88586 24.5659 7.88586H11.6815C10.203 7.88555 8.97262 9.0217 8.85537 10.4955C8.73812 11.9694 9.77341 13.2858 11.2333 13.5192Z" fill="#E5A259"/>
<path d="M11.8812 20.7378H12.3216C13.537 20.7378 14.5223 21.7231 14.5223 22.9385C14.5223 24.154 13.537 25.1393 12.3216 25.1393H11.8812C10.6658 25.1393 9.68049 24.154 9.68049 22.9385C9.68049 21.7231 10.6658 20.7378 11.8812 20.7378Z" fill="#F34848"/>
<path d="M22.7626 17.5688H26.547C27.6314 17.5688 28.5104 18.4479 28.5104 19.5322V20.007C28.5104 21.0913 27.6314 21.9703 26.547 21.9703H22.7626C21.6783 21.9703 20.7993 21.0913 20.7993 20.007V19.5322C20.7993 18.4479 21.6783 17.5688 22.7626 17.5688Z" fill="#FFD300"/>
<path d="M17.3626 9.82251H19.0356C19.9106 9.82251 20.62 10.5319 20.62 11.407C20.62 12.282 19.9106 12.9914 19.0356 12.9914H17.3626C16.4875 12.9914 15.7781 12.282 15.7781 11.407C15.7781 10.5319 16.4875 9.82251 17.3626 9.82251Z" fill="#1C99F6"/>
<path d="M20.7666 20.2096H21.9085C22.8807 20.2096 23.6688 20.9977 23.6688 21.97V21.9703C23.6688 22.9426 22.8807 23.7307 21.9085 23.7307H20.7666C19.7944 23.7307 19.0062 22.9426 19.0062 21.9703V21.97C19.0062 20.9977 19.7944 20.2096 20.7666 20.2096Z" fill="#FFD300"/>
<path d="M13.4135 19.5051H15.2727C16.2449 19.5051 17.0331 20.2933 17.0331 21.2655V21.2659C17.0331 22.2381 16.2449 23.0262 15.2727 23.0262H13.4135C12.4412 23.0262 11.6531 22.2381 11.6531 21.2659V21.2655C11.6531 20.2933 12.4412 19.5051 13.4135 19.5051Z" fill="#F34848"/>
<path d="M20.2246 10.8789H22.2695C23.3389 10.8789 24.2059 11.7459 24.2059 12.8154C24.2059 13.8849 23.3389 14.7519 22.2695 14.7519H20.2246C19.1551 14.7519 18.2882 13.8849 18.2882 12.8154C18.2882 11.7459 19.1551 10.8789 20.2246 10.8789Z" fill="#1C99F6"/>
<path d="M26.7567 11.761L27.5895 11.4743C27.9957 11.3344 28.4459 11.436 28.7523 11.7367L28.983 11.9628C29.4592 12.4296 29.8063 13.0119 29.9903 13.6528L34.2499 28.4923C34.4165 29.0724 34.0995 29.6815 33.5287 29.8778L33.4065 29.9198C32.8359 30.1163 32.2114 29.8316 31.9856 29.272L26.206 14.9555C25.9563 14.3372 25.8712 13.6645 25.9589 13.0037L26.0016 12.6838C26.0582 12.258 26.3506 11.9009 26.7567 11.761Z" fill="#CD7900"/>
<path d="M25.1302 7.82769L26.449 7.37358C26.5632 7.33427 26.6881 7.39113 26.7329 7.50301L28.2353 11.2361C28.2586 11.2938 28.2572 11.3586 28.2314 11.4152C28.2055 11.4718 28.1575 11.5153 28.0987 11.5355L26.3922 12.1231C26.3334 12.1434 26.2688 12.1387 26.2136 12.11C26.1584 12.0813 26.1174 12.0311 26.1002 11.9713L24.9859 8.10494C24.9524 7.98885 25.0159 7.86688 25.1302 7.82769Z" fill="#D8D8D8"/>
<path d="M28.1147 10.8202L25.9393 11.5692C25.7058 11.6497 25.5817 11.9042 25.6621 12.1377C25.7425 12.3712 25.997 12.4954 26.2305 12.415L28.4059 11.6659C28.6395 11.5855 28.7636 11.331 28.6832 11.0975C28.6028 10.8639 28.3483 10.7398 28.1147 10.8202Z" fill="#D8D8D8"/>
<path d="M26.5161 6.87744L24.7722 7.47793C24.5386 7.55835 24.4145 7.81285 24.4949 8.04639C24.5753 8.27993 24.8298 8.40406 25.0634 8.32365L26.8073 7.72316C27.0409 7.64274 27.165 7.38823 27.0846 7.1547C27.0042 6.92116 26.7497 6.79703 26.5161 6.87744Z" fill="#D8D8D8"/>
<path d="M22.9944 2.95938L22.8258 0.816796C22.8045 0.545366 22.9694 0.293884 23.2269 0.205244C23.4843 0.116604 23.7691 0.213232 23.9194 0.440222L25.1032 2.22856C25.1639 2.32001 25.2328 2.40578 25.3089 2.48479L27.0741 4.3201C27.484 4.74598 27.6482 5.35154 27.5097 5.92614C27.3712 6.50075 26.949 6.96491 26.3902 7.15734L25.0377 7.62302C24.4785 7.81557 23.8598 7.71049 23.3956 7.34397C22.9314 6.97746 22.6856 6.39994 22.7433 5.81132L22.9914 3.27846C23.0018 3.17239 23.0028 3.06562 22.9944 2.95938Z" fill="#835032"/>
<mask id="mask0_1_2430" style="mask-type:luminance" maskUnits="userSpaceOnUse" x="22" y="0" width="6" height="8">
<path d="M22.9944 2.95938L22.8258 0.816796C22.8045 0.545366 22.9694 0.293884 23.2269 0.205244C23.4843 0.116604 23.7691 0.213232 23.9194 0.440222L25.1032 2.22856C25.1639 2.32001 25.2328 2.40578 25.3089 2.48479L27.0741 4.3201C27.484 4.74598 27.6482 5.35154 27.5097 5.92614C27.3712 6.50075 26.949 6.96491 26.3902 7.15734L25.0377 7.62302C24.4785 7.81557 23.8598 7.71049 23.3956 7.34397C22.9314 6.97746 22.6856 6.39994 22.7433 5.81132L22.9914 3.27846C23.0018 3.17239 23.0028 3.06562 22.9944 2.95938Z" fill="#FFD300"/>
</mask>
<g mask="url(#mask0_1_2430)">
<path d="M23.6506 2.08723C23.5069 1.67005 23.0523 1.44831 22.6351 1.59196C22.2179 1.7356 21.9962 2.19024 22.1399 2.60742L23.0029 5.11374C23.1465 5.53092 23.6011 5.75266 24.0183 5.60901C24.4355 5.46537 24.6572 5.01073 24.5136 4.59355L23.6506 2.08723Z" fill="#FFD300"/>
</g>
<mask id="mask1_1_2430" style="mask-type:luminance" maskUnits="userSpaceOnUse" x="22" y="0" width="6" height="8">
<path d="M22.9944 2.95938L22.8258 0.816796C22.8045 0.545366 22.9694 0.293884 23.2269 0.205244C23.4843 0.116604 23.7691 0.213232 23.9194 0.440222L25.1032 2.22856C25.1639 2.32001 25.2328 2.40578 25.3089 2.48479L27.0741 4.3201C27.484 4.74598 27.6482 5.35154 27.5097 5.92614C27.3712 6.50075 26.949 6.96491 26.3902 7.15734L25.0377 7.62302C24.4785 7.81557 23.8598 7.71049 23.3956 7.34397C22.9314 6.97746 22.6856 6.39994 22.7433 5.81132L22.9914 3.27846C23.0018 3.17239 23.0028 3.06562 22.9944 2.95938Z" fill="#FFD300"/>
</mask>
<g mask="url(#mask1_1_2430)">
<path d="M23.2106 -0.262255L23.1963 -0.257311C22.5447 -0.0329526 22.1984 0.677139 22.4227 1.32872L22.9934 2.98618C23.2178 3.63777 23.9279 3.9841 24.5795 3.75974L24.5938 3.7548C25.2454 3.53044 25.5917 2.82035 25.3674 2.16876L24.7967 0.511306C24.5723 -0.140278 23.8622 -0.486613 23.2106 -0.262255Z" fill="#FFD300"/>
</g>
</g>
<defs>
<clipPath id="clip0_1_2430">
<rect width="28.8889" height="30" fill="white" transform="translate(5.55554)"/>
</clipPath>
</defs>
</svg>
