<svg width="32" height="32" viewBox="0 0 32 32" fill="none" xmlns="http://www.w3.org/2000/svg">
<path d="M12.8138 17.4379L18.8384 13.9596" stroke="#AFAFAF" stroke-width="2.08696"/>
<path d="M20.8752 6.35746C20.0108 4.86019 18.0962 4.34719 16.599 5.21164C15.1017 6.07608 14.5887 7.99063 15.4532 9.48789L21.3662 19.7296C22.2306 21.2268 24.1452 21.7398 25.6425 20.8754C27.1397 20.011 27.6527 18.0964 26.7883 16.5991L20.8752 6.35746Z" fill="#1CB0F6"/>
<path d="M10.634 12.2704C9.76957 10.7732 7.85503 10.2602 6.35776 11.1246C4.8605 11.989 4.3475 13.9036 5.21195 15.4009L11.125 25.6425C11.9894 27.1398 13.904 27.6528 15.4012 26.7884C16.8985 25.9239 17.4115 24.0094 16.5471 22.5121L10.634 12.2704Z" fill="#1CB0F6"/>
<path d="M26.4839 6.33243C25.6195 4.83517 23.7049 4.32217 22.2077 5.18661C20.7104 6.05106 20.1974 7.9656 21.0619 9.46287L24.1923 14.8849C25.0567 16.3822 26.9713 16.8952 28.4685 16.0308C29.9658 15.1663 30.4788 13.2518 29.6144 11.7545L26.4839 6.33243Z" fill="#1CB0F6"/>
<path d="M7.80797 17.115C6.94352 15.6178 5.02898 15.1048 3.53171 15.9692C2.03445 16.8337 1.52145 18.7482 2.3859 20.2455L5.51633 25.6675C6.38078 27.1648 8.29532 27.6778 9.79258 26.8134C11.2898 25.9489 11.8028 24.0344 10.9384 22.5371L7.80797 17.115Z" fill="#1CB0F6"/>
<path opacity="0.3" d="M5.93237 18.0903C5.64422 17.5912 5.00604 17.4202 4.50695 17.7084C4.00786 17.9965 3.83686 18.6347 4.12501 19.1338L4.82066 20.3387C5.10881 20.8378 5.74699 21.0088 6.24608 20.7206C6.74517 20.4325 6.91617 19.7943 6.62802 19.2952L5.93237 18.0903Z" fill="white"/>
<path opacity="0.3" d="M25.4106 7.65549C25.1225 7.1564 24.4843 6.9854 23.9852 7.27355C23.4861 7.5617 23.3151 8.19988 23.6033 8.69897L24.2989 9.90387C24.5871 10.403 25.2253 10.574 25.7244 10.2858C26.2234 9.99766 26.3944 9.35948 26.1063 8.86039L25.4106 7.65549Z" fill="white"/>
<path opacity="0.3" d="M8.71496 13.2208C8.42681 12.7217 7.78863 12.5507 7.28954 12.8389C6.79045 13.127 6.61945 13.7652 6.9076 14.2643L7.95108 16.0716C8.23923 16.5707 8.87741 16.7417 9.3765 16.4536C9.87559 16.1654 10.0466 15.5272 9.75844 15.0282L8.71496 13.2208Z" fill="white"/>
<path opacity="0.3" d="M19.1498 7.65549C18.8616 7.1564 18.2234 6.9854 17.7244 7.27355C17.2253 7.5617 17.0543 8.19988 17.3424 8.69897L18.3859 10.5063C18.674 11.0054 19.3122 11.1764 19.8113 10.8883C20.3104 10.6001 20.4814 9.96193 20.1933 9.46285L19.1498 7.65549Z" fill="white"/>
</svg>
