<svg width="120" height="28" viewBox="0 0 120 28" fill="none" xmlns="http://www.w3.org/2000/svg">
<g clip-path="url(#clip0_4_5388)">
<path d="M103.814 14C103.814 9.57254 107.187 6.45221 111.657 6.45221C116.127 6.45221 119.5 9.57254 119.5 14C119.5 18.3432 116.127 21.5478 111.657 21.5478C107.187 21.5478 103.814 18.3853 103.814 14ZM115.073 14C115.073 11.9339 113.765 10.4159 111.699 10.4159C109.633 10.4159 108.326 11.9339 108.326 14C108.326 16.0662 109.633 17.5842 111.699 17.5842C113.765 17.5842 115.073 16.1084 115.073 14ZM100.862 10.5002C101.158 11.0905 101.284 11.723 101.284 12.3977C101.284 14 100.441 15.4759 99.0914 16.6144C100.947 17.4999 102.043 19.6503 102.043 21.6743C102.043 25.4693 98.9649 27.9993 94.2844 27.9993C89.6039 27.9993 86.5258 25.5115 86.5258 21.6743C86.5258 19.6082 87.6221 17.542 89.4774 16.6144C88.0859 15.4759 87.2848 14 87.2848 12.3977C87.2848 9.06654 89.8991 6.62088 94.0314 6.62088C96.4771 6.62088 97.1939 7.04255 98.5854 7.04255C99.5131 7.04255 100.146 6.91605 101.284 6.32572C101.664 6.11488 101.959 6.03055 102.212 6.03055C102.76 6.03055 103.055 6.57871 103.055 7.25338C103.097 8.72921 102.423 9.95204 100.862 10.5002ZM97.6999 21.5478C97.6999 19.8612 96.3927 18.6805 94.3266 18.6805C92.2604 18.6805 90.9532 19.819 90.9532 21.5478C90.9532 23.1502 92.3869 24.4152 94.3266 24.4152C96.2241 24.4152 97.6999 23.1502 97.6999 21.5478ZM91.5857 12.6507C91.5857 14.0844 92.8086 15.2229 94.2844 15.2229C95.8024 15.2229 96.9831 14.0844 96.9831 12.6507C96.9831 11.1327 95.8867 10.0785 94.2844 10.0785C92.7242 10.0785 91.5857 11.0905 91.5857 12.6507ZM84.5018 14.2952V19.566C84.5018 20.578 84.1223 20.9997 83.0259 20.9997H81.5501C80.4538 20.9997 80.0743 20.578 80.0743 19.566V14.4217C80.0743 13.1145 79.8634 12.1869 79.3996 11.5965C78.8936 10.964 78.1346 10.6267 77.1648 10.6267C76.2371 10.6267 75.3938 10.964 74.8456 11.5965C74.3396 12.1869 74.0023 13.1145 74.0023 14.3795V19.5238C74.0023 20.578 73.5806 20.9575 72.5265 20.9575H71.0506C70.0386 20.9575 69.5748 20.578 69.5748 19.5238V7.71721C69.5748 7.04255 69.9121 6.74738 70.4181 6.74738C71.1771 6.74738 72.2313 7.37988 73.0325 8.60271C74.2131 7.21121 76.0263 6.49438 77.7973 6.49438C79.9478 6.49438 81.6766 7.25338 82.8151 8.51838C83.9536 9.82554 84.5018 11.5122 84.5018 14.2952ZM61.4788 2.40423C61.4788 1.0549 62.5752 0.000732422 64.0088 0.000732422C65.3582 0.000732422 66.5388 1.0549 66.5388 2.40423C66.5388 3.71139 65.3582 4.80772 64.0088 4.80772C62.5752 4.80772 61.4788 3.71139 61.4788 2.40423ZM61.774 19.566V8.47621C61.774 7.46421 62.1535 7.04255 63.2498 7.04255H64.7257C65.822 7.04255 66.2015 7.46421 66.2015 8.47621V19.566C66.2015 20.578 65.822 20.9997 64.7257 20.9997H63.2498C62.1535 20.9997 61.774 20.578 61.774 19.566ZM53.9732 19.566V5.65105C53.9732 2.15123 55.955 0.169399 57.5573 0.169399C58.0633 0.169399 58.4007 0.506731 58.4007 1.13923V19.5238C58.4007 20.578 57.979 20.9575 56.9248 20.9575H55.449C54.437 20.9997 53.9732 20.6202 53.9732 19.566ZM35.7572 14C35.7572 9.57254 39.1306 6.45221 43.6002 6.45221C48.0699 6.45221 51.4432 9.57254 51.4432 14C51.4432 18.3432 48.0699 21.5478 43.6002 21.5478C39.1306 21.5478 35.7572 18.3853 35.7572 14ZM46.9735 14C46.9735 11.9339 45.6664 10.4159 43.6002 10.4159C41.534 10.4159 40.2269 11.9339 40.2269 14C40.2269 16.0662 41.534 17.5842 43.6002 17.5842C45.6664 17.5842 46.9735 16.1084 46.9735 14ZM33.4802 8.47621V20.2828C33.4802 20.9575 33.1429 21.2527 32.6369 21.2527C31.8779 21.2527 30.8237 20.6202 30.0648 19.4395C28.9684 20.7467 27.2818 21.5057 25.3843 21.5057C23.4868 21.5057 21.9688 20.831 20.8303 19.819C19.5231 18.554 18.8063 16.6144 18.8063 13.8314V8.47621C18.8063 7.46421 19.1858 7.04255 20.2821 7.04255H21.7579C22.8543 7.04255 23.2338 7.46421 23.2338 8.47621V13.4519C23.2338 15.1385 23.5289 16.024 24.0771 16.6144C24.5409 17.1204 25.2156 17.3734 26.0589 17.3734C26.9023 17.3734 27.7034 17.036 28.1673 16.4879C28.7154 15.8975 29.0106 14.9699 29.0106 13.5362V8.47621C29.0106 7.42205 29.4323 7.04255 30.4864 7.04255H31.9622C33.0164 7.00038 33.4802 7.42205 33.4802 8.47621ZM15.7703 1.13923V20.2828C15.7703 20.9575 15.433 21.2527 14.927 21.2527C14.168 21.2527 13.1138 20.6202 12.3548 19.4817C11.4271 20.578 9.52964 21.5478 7.33698 21.5478C2.95166 21.5478 0 18.3432 0 14C0 9.74121 2.99382 6.45221 7.33698 6.45221C8.93931 6.45221 10.3308 6.95821 11.385 7.67505V5.65105C11.385 2.15123 13.3668 0.169399 14.9691 0.169399C15.4751 0.169399 15.7703 0.506731 15.7703 1.13923ZM11.385 14C11.385 11.8495 9.86697 10.4159 7.96948 10.4159C6.02982 10.4159 4.51182 11.8495 4.51182 14C4.51182 16.1505 6.02982 17.5842 7.96948 17.5842C9.86697 17.5842 11.385 16.1927 11.385 14Z" fill="#58CC02"/>
</g>
<defs>
<clipPath id="clip0_4_5388">
<rect width="119.5" height="28" fill="white"/>
</clipPath>
</defs>
</svg>
